<svg version="1.1" id="Layer_1" xmlns="http://www.w3.org/2000/svg" xmlns:xlink="http://www.w3.org/1999/xlink" x="0" y="0" viewBox="0 0 60 61" xml:space="preserve"><style/><defs><path id="SVGID_1_" d="M15 15.8h30v30H15z"/></defs><clipPath id="SVGID_00000055708059585397703360000014869721291687274384_"><use xlink:href="#SVGID_1_" overflow="visible"/></clipPath><g clip-path="url(#SVGID_00000055708059585397703360000014869721291687274384_)"><path d="M30 16.2c-8.2 0-14.6 6-14.6 14.1 0 4.2 1.7 7.9 4.6 10.4.5.4.4.7.5 3.4 0 .2.1.4.2.5.1.2.2.3.4.4.2.1.3.2.5.2s.4 0 .6-.1c3.1-1.4 3.1-1.5 3.7-1.3 9 2.5 18.7-3.3 18.7-13.5-.1-8.1-6.4-14.1-14.6-14.1zm8.8 10.9l-4.3 6.8c-.2.3-.4.5-.6.6-.2.2-.5.3-.8.3-.3.1-.6 0-.9 0-.3-.1-.6-.2-.8-.4L28 31.9c-.2-.1-.3-.2-.5-.2s-.4.1-.5.2l-4.6 3.5c-.6.5-1.4-.3-1-.9l4.3-6.8c.2-.3.4-.5.6-.6.2-.2.5-.3.8-.3.3-.1.6 0 .9 0 .3.1.6.2.8.4l3.4 2.5c.2.1.3.2.5.2s.4-.1.5-.2l4.6-3.5c.6-.5 1.4.2 1 .9z" fill="#fff"/></g></svg>