<svg width="32" height="22" fill="none" xmlns="http://www.w3.org/2000/svg"><path d="M31.625 4.725c.25 1.722.375 3.42.375 5.094v2.362l-.375 5.094c-.2 1.428-.624 2.461-1.274 3.1-.699.69-1.748 1.133-3.147 1.33-1.35.098-2.973.172-4.871.221-1.849.05-3.373.074-4.572.074h-1.798c-5.546-.05-9.168-.148-10.867-.295l-.6-.074c-.4-.05-.724-.099-.974-.148-.25-.049-.574-.172-.974-.369a4.606 4.606 0 01-.974-.738c-.25-.296-.5-.69-.75-1.181-.2-.542-.324-1.01-.374-1.403l-.15-.517c-.2-1.722-.3-3.42-.3-5.094V9.82l.3-5.094c.2-1.427.624-2.461 1.274-3.1.7-.74 1.774-1.182 3.222-1.33A104.66 104.66 0 019.593.074 177.9 177.9 0 0114.164 0h1.799c4.496 0 8.243.098 11.24.295 1.4.148 2.449.59 3.148 1.33.2.196.375.442.525.737.15.246.275.517.375.813.1.246.175.492.224.738.05.246.1.443.15.59v.222zM20.31 11.222l1.05-.517-8.619-4.43v8.86l7.57-3.913z" fill="#fff"/></svg>