<svg width="18" height="18" fill="none" xmlns="http://www.w3.org/2000/svg"><path d="M9 0a9 9 0 110 18A9 9 0 019 0zM5.871 7.418a.167.167 0 00-.14.07.169.169 0 00-.053.123v4.746a.19.19 0 00.052.141.19.19 0 00.141.053h1.336a.169.169 0 00.123-.053.167.167 0 00.07-.14V7.61c0-.047-.023-.088-.07-.123-.035-.047-.076-.07-.123-.07H5.871zm5.274-.123c-.563 0-1.008.158-1.336.475 0-.06-.006-.1-.018-.124V7.56a.17.17 0 00-.07-.106c-.024-.023-.059-.035-.106-.035h-1.3c-.047 0-.094.023-.141.07a.169.169 0 00-.053.123v4.746a.19.19 0 00.053.141.234.234 0 00.14.053H9.65a.19.19 0 00.141-.053.19.19 0 00.053-.14V9.79c0-.34.064-.604.193-.791.129-.188.352-.281.668-.281.258 0 .434.064.527.193.094.117.141.305.141.563v2.882a.19.19 0 00.053.141.234.234 0 00.14.053h1.371a.168.168 0 00.123-.053.167.167 0 00.07-.14v-3.2c0-.61-.175-1.072-.527-1.388-.351-.317-.837-.475-1.458-.475zM6.52 5.063a.863.863 0 00-.632.263.884.884 0 00-.264.65c0 .247.088.463.264.65a.863.863 0 00.632.265.884.884 0 00.65-.264.922.922 0 00.265-.65.884.884 0 00-.264-.65.884.884 0 00-.65-.264z" fill="#CE9F54"/></svg>