<svg width="200" height="81" fill="none" xmlns="http://www.w3.org/2000/svg"><g clip-path="url(#clip0_23_2538)"><g clip-path="url(#clip1_23_2538)"><path d="M70.637 36.032h4.637v1.54h.352c.825-1.04 2.192-1.951 4.512-1.951 4.32 0 7.815 3.741 7.815 8.714 0 4.844-3.24 8.683-7.56 8.683-2.572 0-4.07-1.102-4.764-2.107h-.352v8.922h-4.64v-23.8zm12.626 8.274c0-2.59-1.811-4.317-4.035-4.317-2.416 0-4.006 1.98-4.006 4.317 0 2.769 1.843 4.372 4.038 4.372 2.259-.003 4.003-1.764 4.003-4.372zm6.597-8.274h4.576v2.202h.317a4.913 4.913 0 011.784-1.889 4.98 4.98 0 012.507-.724h1.335v4.561h-1.707c-2.544 0-4.195 1.575-4.195 4.657v7.77H89.86V36.032zm12.266 11.135V36.032h4.652v9.656c0 1.666 1.142 2.895 2.764 2.895 1.684 0 2.858-1.26 2.858-2.927v-9.624h4.652V52.61H112.4V51.1h-.317c-.761 1.07-2.128 1.919-4.07 1.919-3.526 0-5.887-2.61-5.887-5.85zm17.348-11.135h4.651v1.508h.317c.765-1.068 2.131-1.92 4.071-1.92 3.529 0 5.878 2.614 5.878 5.852v11.137h-4.651v-9.658c0-1.666-1.146-2.878-2.765-2.878-1.687 0-2.861 1.258-2.861 2.924v9.627h-4.652l.012-16.592zm16.522 8.303c0-5.18 3.878-8.714 8.55-8.714 5.146 0 8.356 3.776 8.356 8.682v1.152h-12.138c.032 2.17 1.651 3.49 3.846 3.49 1.524 0 2.986-.598 3.623-1.982l4.128.944c-1.206 3.712-4.448 5.097-7.69 5.097-5.113.014-8.675-3.667-8.675-8.669zm12.237-1.92c-.224-1.666-1.718-2.987-3.687-2.987-2.163 0-3.529 1.511-3.75 2.988h7.437zm5.783 5.224l4.07-.725c.189 1.542 1.587 2.233 3.178 2.233 1.398 0 2.096-.532 2.096-1.32 0-2.738-8.769-.441-8.769-7.046 0-2.878 2.669-5.16 6.396-5.16 3.489 0 5.943 1.574 6.687 4.561l-4.003 1.07a2.593 2.593 0 00-.986-1.373 2.636 2.636 0 00-1.631-.482c-1.11 0-1.872.471-1.872 1.194 0 2.59 8.864.44 8.864 6.795 0 3.335-2.637 5.632-6.977 5.632-3.591 0-6.577-1.698-7.053-5.379zm-47.835-29.433h-2.765V14.15h2.765v-1.888c0-3.618 2.192-5.126 5.561-5.126h3.198v4.119h-3.081c-.794 0-1.079.313-1.079 1.039v1.856h4.256v4.055h-4.247v12.52h-4.608v-12.52zm9.216 4.248c0-4.939 3.715-8.712 8.928-8.712 5.213 0 8.896 3.805 8.896 8.712s-3.686 8.68-8.896 8.68c-5.21 0-8.928-3.773-8.928-8.68zm13.12 0c0-2.487-1.715-4.34-4.192-4.34-2.477 0-4.227 1.853-4.227 4.34 0 2.486 1.744 4.317 4.227 4.317 2.483 0 4.192-1.865 4.192-4.317zm6.1-8.303h4.576v2.201h.317a4.918 4.918 0 011.784-1.886 4.98 4.98 0 012.507-.724h1.335v4.559h-1.716c-2.544 0-4.195 1.574-4.195 4.657v7.77h-4.608V14.151zM49.564 22.48c0-4.916 3.645-8.686 8.518-8.686 3.614 0 6.774 2.141 7.678 5.716l-2 .449c-.582-2.556-2.907-4.317-5.646-4.317-3.838 0-6.42 2.97-6.42 6.832 0 4.03 2.742 6.835 6.452 6.835 2.808 0 5.128-1.819 5.71-4.343l1.962.484c-.872 3.546-4.16 5.718-7.71 5.718-5.027 0-8.544-3.77-8.544-8.688zm35.733 6.42v1.851h-1.386c-1.454 0-2.26-.766-2.26-2.302v-.547h-.16a6.782 6.782 0 01-2.529 2.413 6.867 6.867 0 01-3.407.845c-4.873 0-8.196-3.546-8.196-8.689 0-5.143 3.23-8.671 8.068-8.671a6.86 6.86 0 013.43.851 6.787 6.787 0 012.539 2.438h.162v-2.878h2.065v13.89c0 .543.322.8.872.8h.802zm-3.643-6.42c0-4.055-2.517-6.833-6.105-6.833-3.489 0-6.065 2.714-6.065 6.833 0 4.216 2.646 6.835 6.106 6.835 3.71 0 6.064-3.065 6.064-6.835zm5.19 6.547h3.489V8.907h-3.489V7.18h5.547v21.847h3.451v1.727h-8.998v-1.727zm11.47-13.124h-3.228v-1.695h5.292v16.543h-2.065V15.903zM97.7 9.389a1.6 1.6 0 01.452-1.186 1.631 1.631 0 011.177-.497 1.646 1.646 0 011.178.497 1.604 1.604 0 01.452 1.186 1.6 1.6 0 01-.452 1.185 1.629 1.629 0 01-1.178.497 1.647 1.647 0 01-1.177-.497 1.611 1.611 0 01-.452-1.185zm49.581 4.792h2.067v2.624h.163c.776-1.6 2.617-3.039 5.364-3.039 4.009 0 6.335 2.941 6.335 6.686v10.303h-2.067v-10.11c0-3.04-1.971-4.96-4.718-4.96-2.879 0-5.077 2.177-5.077 5.181v9.886h-2.067V14.18zm18.723 1.695h-3.233V14.18h5.3v16.574h-2.067v-14.88zm-.616-6.525a1.605 1.605 0 01.453-1.187 1.646 1.646 0 012.359 0 1.605 1.605 0 01.453 1.188 1.605 1.605 0 01-.453 1.187 1.645 1.645 0 01-2.359 0 1.625 1.625 0 01-.453-1.188zm23.604 19.548v1.856h-1.389c-1.454 0-2.262-.769-2.262-2.302v-.55h-.163a6.782 6.782 0 01-2.532 2.418 6.864 6.864 0 01-3.413.846c-4.882 0-8.211-3.552-8.211-8.704 0-5.151 3.239-8.697 8.08-8.697a6.884 6.884 0 013.437.853 6.8 6.8 0 012.543 2.443h.163v-2.879h2.067v13.916c0 .544.323.8.872.8h.808zm-3.651-6.433c0-4.06-2.521-6.846-6.105-6.846-3.489 0-6.077 2.72-6.077 6.846 0 4.225 2.652 6.847 6.106 6.847 3.718 0 6.076-3.07 6.076-6.847zM60.827 68.481h3.896c2.163 0 3.649 1.39 3.649 3.515 0 2.124-1.553 3.545-3.65 3.545h-2.211v4.378h-1.684V68.48zm3.797 5.555a1.975 1.975 0 001.474-.574 1.934 1.934 0 00.561-1.466 1.88 1.88 0 00-.566-1.449 1.922 1.922 0 00-1.469-.546h-2.113v4.03l2.113.005zm5.18-2.654h1.62v1.339h.117c.192-.452.512-.839.922-1.114.41-.275.891-.427 1.386-.438h.61v1.63h-.822c-1.486 0-2.198 1.128-2.198 2.745v4.377h-1.634v-8.539zm6.042 5.471v-5.468h1.634v5.18a1.91 1.91 0 00.55 1.432 1.95 1.95 0 001.43.583 2.136 2.136 0 001.538-.624 2.093 2.093 0 00.608-1.531v-5.043h1.634v8.528h-1.634V78.8h-.131c-.363.719-1.221 1.323-2.477 1.323-1.948 0-3.152-1.44-3.152-3.27zm9.606-5.47h1.634v1.11h.13c.364-.72 1.222-1.323 2.478-1.323 1.948 0 3.151 1.439 3.151 3.266v5.468h-1.633v-5.18a1.926 1.926 0 00-.555-1.427 1.965 1.965 0 00-1.425-.588 2.151 2.151 0 00-1.54.635 2.108 2.108 0 00-.606 1.538v5.048h-1.634v-8.548zm8.911 4.294c0-2.697 1.93-4.493 4.242-4.493 2.616 0 4.16 1.845 4.16 4.395v.506h-6.71c.017 1.666 1.04 2.648 2.643 2.648 1.073 0 2.079-.59 2.375-1.652l1.535.377c-.529 1.683-2.035 2.68-3.91 2.68-2.643-.015-4.335-1.871-4.335-4.462zm6.733-.818c-.081-1.453-1.186-2.253-2.491-2.253a2.521 2.521 0 00-1.718.632 2.472 2.472 0 00-.823 1.621h5.032zm2.823 2.65l1.518-.345c.148 1.013.872 1.52 1.965 1.52s1.698-.472 1.698-1.191c0-2.058-4.902-.426-4.902-3.84 0-1.456 1.271-2.484 3.155-2.484 1.567 0 2.936.832 3.198 2.37l-1.433.41c-.149-.863-.841-1.34-1.815-1.34-.973 0-1.535.443-1.535 1.062 0 1.864 4.984.212 4.984 3.692 0 1.652-1.352 2.763-3.417 2.763-1.898-.003-3.2-.967-3.416-2.616zm8.35 1.57a1.07 1.07 0 01.324-.754 1.09 1.09 0 011.519 0 1.05 1.05 0 010 1.49 1.09 1.09 0 01-1.513.006 1.07 1.07 0 01-.33-.743zm8.83-10.597h6.8v1.536h-5.117v3.497h4.771v1.52h-4.771v4.892h-1.683V68.481zm7.442 7.163c0-.887.266-1.753.764-2.49a4.513 4.513 0 012.033-1.65 4.567 4.567 0 012.616-.251 4.538 4.538 0 012.316 1.23 4.46 4.46 0 011.234 2.298c.173.87.081 1.77-.264 2.589a4.49 4.49 0 01-1.674 2.006c-.746.49-1.623.75-2.518.746-2.608 0-4.507-1.911-4.507-4.478zm7.379 0c0-1.698-1.189-2.973-2.872-2.973-1.684 0-2.838 1.292-2.838 2.973 0 1.727 1.186 2.958 2.838 2.958 1.651 0 2.872-1.243 2.872-2.958zm3.349-4.263h1.617v1.339h.116c.193-.452.514-.839.924-1.114a2.59 2.59 0 011.387-.438h.611v1.63h-.826c-1.485 0-2.195 1.128-2.195 2.745v4.377h-1.634v-8.539zm9.76 7.123h1.684v-9.428h-1.684v-1.421h3.317v10.85h1.666v1.404h-4.983v-1.404zm7.399-5.706h-1.567v-1.405h3.198v8.527h-1.634l.003-7.123zm-.264-3.923a1.08 1.08 0 01.34-.733 1.108 1.108 0 011.514 0 1.087 1.087 0 01.274 1.166 1.086 1.086 0 01-.597.622 1.11 1.11 0 01-1.23-.25 1.071 1.071 0 01-.301-.805zm5.343 3.922h-1.567v-1.404h1.567v-1.226c0-1.764 1.073-2.501 2.693-2.501h1.302v1.39h-1.288c-.759 0-1.073.346-1.073 1.111v1.212h2.428v1.419h-2.428v7.122h-1.634v-7.123zm4.524 2.879c0-2.697 1.931-4.493 4.242-4.493 2.617 0 4.16 1.845 4.16 4.395v.506h-6.718c.017 1.666 1.04 2.648 2.639 2.648 1.073 0 2.082-.59 2.379-1.652l1.535.377c-.529 1.683-2.035 2.68-3.914 2.68-2.622-.015-4.323-1.871-4.323-4.462zm6.734-.818c-.082-1.453-1.19-2.253-2.492-2.253a2.523 2.523 0 00-1.718.632 2.474 2.474 0 00-.823 1.621h5.033zm2.808 4.22c.002-.284.118-.556.322-.755.204-.2.479-.311.765-.31a1.063 1.063 0 01.971.664 1.052 1.052 0 01-.785 1.428 1.077 1.077 0 01-1.09-.445 1.046 1.046 0 01-.183-.583zM199.122 9.31c0 2.216-1.744 3.943-4.041 3.943-2.268 0-4.07-1.727-4.07-3.943 0-2.159 1.802-3.885 4.07-3.885 2.297 0 4.041 1.726 4.041 3.885zm-7.065 0c0 1.727 1.309 3.108 3.082 3.108 1.715 0 2.995-1.381 2.995-3.08 0-1.726-1.28-3.136-3.024-3.136s-3.053 1.41-3.053 3.108zm2.413 2.043h-.901V7.468a9.466 9.466 0 011.512-.115c.756 0 1.076.115 1.366.288.204.172.378.489.378.863 0 .432-.349.748-.814.892v.058c.378.144.611.431.727.95.116.604.204.834.291.978h-.989c-.116-.144-.203-.49-.319-.95-.059-.431-.32-.604-.814-.604h-.437v1.525zm.03-2.216h.436c.494 0 .901-.173.901-.575 0-.346-.262-.605-.843-.605a1.74 1.74 0 00-.494.058v1.122z" fill="#CEA052"/><mask id="a" style="mask-type:luminance" maskUnits="userSpaceOnUse" x="0" y="13" width="40" height="47"><path d="M19.45 59.73A19.092 19.092 0 018.8 56.597c-3.89-2.633-6.605-6.824-7.646-11.782-.976-4.643-.378-9.619 1.637-13.654 2.355-4.7 6.233-7.445 9.071-8.907.322-.151.69-.173 1.029-.061.338.112.619.35.784.663a1.353 1.353 0 01-.54 1.815c-2.474 1.278-5.846 3.65-7.873 7.7-4.276 8.547-.68 18.061 5.097 21.975 4.916 3.33 12.007 3.566 17.243.576 4.69-2.682 7.815-8.133 8.577-14.965.788-7.052-1.227-14.103-5.012-17.556-2.838-2.59-6.179-3.2-8.234-2.668a5.988 5.988 0 00-2.54 1.416c3.046 5.698 2.98 12.346.709 16.52-.873 1.597-2.376 2.428-3.853 2.118-1.395-.288-3.137-1.632-3.488-6.35-.297-3.81.64-9.022 3.215-12.582a15.893 15.893 0 00-1.593-1.968 17.596 17.596 0 00-4.108-3.203 1.375 1.375 0 01-.647-.826 1.351 1.351 0 01.485-1.439 1.385 1.385 0 011.528-.107 20.524 20.524 0 014.762 3.704 18.878 18.878 0 011.5 1.79 8.671 8.671 0 013.33-1.704c4.125-1.07 8.396 1.108 10.8 3.299 4.469 4.072 6.78 11.868 5.887 19.858-.872 7.695-4.483 13.898-9.94 17.017a19.294 19.294 0 01-9.53 2.452zm-.936-36.122c-1.584 2.878-2.23 6.703-2.009 9.626.227 2.994 1.047 3.828 1.314 3.883.166.035.561-.199.852-.734 1.7-3.146 1.846-8.214-.157-12.775z" fill="#fff"/></mask><g mask="url(#a)"><path d="M8.711 12.498c4.812 1.627 8.405 5.489 10.362 10.056 1.764 4.113 3.087 10.73 1.05 14.986-.341.71-.992 1.327-1.783 1.41-3.166.337-3.419-5.022-3.532-7.086-.242-4.3 1.096-9.166 4.77-11.8 3.271-2.345 8.028-1.997 11.377.24 3.35 2.236 5.39 6.043 6.204 9.952 1.41 6.763.648 14.582-3.227 20.456-4.27 6.479-12.56 8.873-19.95 6.821-7.315-2.032-11.464-8.665-11.92-15.976a19.414 19.414 0 012.768-11.2c2.288-3.728 5.66-5.736 9.326-7.924" stroke="#CEA052" stroke-width="26.415" stroke-miterlimit="10"/></g><mask id="b" style="mask-type:luminance" maskUnits="userSpaceOnUse" x="15" y="1" width="30" height="14"><path d="M28.43 14.859c-3.099 0-6.346-.81-9.946-2.464-.122.084-.238.158-.375.248-.183.118-.415.267-.785.518a1.382 1.382 0 01-1.06.281 1.386 1.386 0 01-.93-.573 1.355 1.355 0 01.426-1.947c.399-.271.649-.432.843-.559.3-.184.585-.389.855-.613a1.389 1.389 0 011.471-.158c9.19 4.46 14.889 2.708 22.05-2.72-5.495-2.947-10.72-4.754-19.561 1.46a1.39 1.39 0 01-1.923-.322 1.355 1.355 0 01.324-1.903c10.42-7.328 16.65-4.893 24.314-.64a1.373 1.373 0 01.7 1.075 1.352 1.352 0 01-.505 1.176c-3.536 2.844-7.423 5.621-11.889 6.671a17.399 17.399 0 01-4.009.47z" fill="#fff"/></mask><g mask="url(#b)"><path d="M15.173 12.87c.954-.745 2.297-1.937 3.593-1.908a4.08 4.08 0 011.515.455 22.355 22.355 0 008.175 1.942c3.536.104 6.853-.99 9.842-2.809a28.529 28.529 0 005.1-3.994c-1.597-.864-3.173-1.782-4.839-2.521-4.16-1.848-9.065-1.255-13.199.345a25.601 25.601 0 00-6.059 3.44" stroke="#CEA052" stroke-width="26.415" stroke-miterlimit="10"/></g></g></g><defs><clipPath id="clip0_23_2538"><path fill="#fff" transform="translate(0 .877)" d="M0 0h200v79.245H0z"/></clipPath><clipPath id="clip1_23_2538"><path fill="#fff" transform="translate(0 .877)" d="M0 0h200v79.245H0z"/></clipPath></defs></svg>