<svg width="32" height="32" fill="none" xmlns="http://www.w3.org/2000/svg"><path d="M32 16c0 8.84-7.16 16-16 16S0 24.84 0 16 7.16 0 16 0s16 7.16 16 16zM7.1 21.27c.41 2 2.08 3.5 4.11 3.7.04 0 .07.02.11.02h9.36c.23-.04.46-.07.69-.12a4.66 4.66 0 003.6-4.09c0-.04.02-.07.02-.11v-9.35c-.04-.23-.07-.46-.12-.68a4.67 4.67 0 00-4.08-3.62c-.03 0-.06-.02-.1-.02h-9.41c-.19.03-.38.06-.57.1a4.675 4.675 0 00-3.7 4.09c0 .04-.02.07-.02.11v9.41c.03.19.06.38.1.57l.01-.01zm4.58 2.2c-1.49 0-2.75-1.03-3.06-2.48-.05-.21-.07-.43-.07-.65v-8.66c0-1.74 1.4-3.13 3.13-3.13h8.66c1.73 0 3.13 1.39 3.14 3.13v8.66c0 1.74-1.4 3.13-3.14 3.14h-8.65l-.01-.01zm4.33-11.94c-2.47 0-4.48 2.01-4.48 4.48 0 2.47 2.02 4.48 4.49 4.47 2.47 0 4.47-2.01 4.47-4.48 0-2.47-2.01-4.47-4.48-4.48v.01zm-.02 7.59c-1.71 0-3.1-1.41-3.1-3.12a3.11 3.11 0 013.13-3.1c1.71 0 3.1 1.41 3.1 3.12a3.11 3.11 0 01-3.13 3.1zm3.95-8.1c0 .58.47 1.04 1.04 1.03.57 0 1.03-.47 1.02-1.04 0-.57-.47-1.03-1.04-1.02-.57 0-1.03.46-1.03 1.03h.01z" fill="#FB4912"/></svg>