<svg width="18" height="18" fill="none" xmlns="http://www.w3.org/2000/svg"><path d="M13.031 11.273L18 16.243l-1.5 1.5-4.969-4.97v-.796l-.281-.282c-1.219 1.032-2.625 1.547-4.219 1.547-1.812 0-3.36-.625-4.64-1.875C1.14 10.086.516 8.555.516 6.773c0-1.812.625-3.343 1.875-4.593C3.67.898 5.203.258 6.984.258c1.813 0 3.344.64 4.594 1.922C12.86 3.43 13.5 4.96 13.5 6.773c0 1.594-.516 3-1.547 4.22l.281.28h.797zM3.844 9.961c.875.875 1.937 1.312 3.187 1.312 1.25 0 2.313-.437 3.188-1.312s1.312-1.938 1.312-3.188c0-1.25-.437-2.312-1.312-3.187S8.28 2.273 7.03 2.273s-2.312.438-3.187 1.313S2.53 5.523 2.53 6.773c0 1.25.438 2.313 1.313 3.188z" fill="#CE9F54"/></svg>