<svg version="1.1" id="Layer_1" xmlns="http://www.w3.org/2000/svg" xmlns:xlink="http://www.w3.org/1999/xlink" x="0" y="0" viewBox="0 0 60 61" xml:space="preserve"><style/><defs><path id="SVGID_1_" d="M13 24.8h33.3v12H13z"/></defs><clipPath id="SVGID_00000081639715214860060530000009232689136634611852_"><use xlink:href="#SVGID_1_" overflow="visible"/></clipPath><g clip-path="url(#SVGID_00000081639715214860060530000009232689136634611852_)"><path d="M29.9 28.1v-.6h1.8v8.6h-1c-.4 0-.8-.3-.8-.8-.7.5-1.6.9-2.6.9-2.5 0-4.4-2-4.4-4.4s2-4.4 4.4-4.4c1-.1 1.9.2 2.6.7zm-7.5-3.3v.2c0 .5-.1.9-.4 1.4-.1.1-.2.3-.3.4l-5.9 7.3h6.6v1c0 .4-.3.8-.8.8H13v-.5c0-.6.1-.9.3-1.1l6.2-7.7h-6.3v-1.9h9.2zm11.5 11.3c-.4 0-.7-.3-.7-.6V24.8h2v11.3h-1.3zm7.1-8.9c2.5 0 4.5 2 4.5 4.5s-2 4.5-4.5 4.5-4.5-2-4.5-4.5 2-4.5 4.5-4.5zm-13.7 7.1c1.4 0 2.6-1.2 2.6-2.6 0-1.4-1.2-2.6-2.6-2.6-1.4 0-2.6 1.2-2.6 2.6 0 1.5 1.1 2.6 2.6 2.6zm13.7 0c1.5 0 2.6-1.2 2.6-2.6 0-1.5-1.2-2.6-2.6-2.6-1.5 0-2.6 1.2-2.6 2.6 0 1.4 1.2 2.6 2.6 2.6z" fill-rule="evenodd" clip-rule="evenodd" fill="#fff"/></g></svg>